<?xml version="1.0" encoding="UTF-8" standalone="no"?>
<svg
   xmlns:dc="http://purl.org/dc/elements/1.1/"
   xmlns:cc="http://creativecommons.org/ns#"
   xmlns:rdf="http://www.w3.org/1999/02/22-rdf-syntax-ns#"
   xmlns:svg="http://www.w3.org/2000/svg"
   xmlns="http://www.w3.org/2000/svg"
   xmlns:sodipodi="http://sodipodi.sourceforge.net/DTD/sodipodi-0.dtd"
   xmlns:inkscape="http://www.inkscape.org/namespaces/inkscape"
   t="1523663958781"
   class="icon"
   viewBox="0 0 3072 1024"
   version="1.1"
   p-id="1951"
   width="600"
   height="200"
   id="svg2356"
   sodipodi:docname="logo.svg"
   inkscape:version="0.92.2 2405546, 2018-03-11">
  <metadata
     id="metadata2360">
    <rdf:RDF>
      <cc:Work
         rdf:about="">
        <dc:format>image/svg+xml</dc:format>
        <dc:type
           rdf:resource="http://purl.org/dc/dcmitype/StillImage" />
        <dc:title></dc:title>
      </cc:Work>
    </rdf:RDF>
  </metadata>
  <sodipodi:namedview
     pagecolor="#ffffff"
     bordercolor="#666666"
     borderopacity="1"
     objecttolerance="10"
     gridtolerance="10"
     guidetolerance="10"
     inkscape:pageopacity="0"
     inkscape:pageshadow="2"
     inkscape:window-width="1920"
     inkscape:window-height="1053"
     id="namedview2358"
     showgrid="false"
     inkscape:zoom="1.18"
     inkscape:cx="434.87633"
     inkscape:cy="43.633152"
     inkscape:window-x="0"
     inkscape:window-y="27"
     inkscape:window-maximized="1"
     inkscape:current-layer="svg2356" />
  <defs
     id="defs2350">
    <style
       type="text/css"
       id="style2348" />
  </defs>
  <path
     d="m 922.2144,47.8208 c -5.06149,0 -10.1376,0.658286 -15.14057,2.004114 L 150.25006,252.6208 c -43.49785,11.65789 -58.074727,66.02459 -26.24366,97.87977 L 291.5328,518.0416 60.416,749.1584 c -22.844595,22.85484 -22.844595,59.89899 0,82.75383 l 127.16617,127.13691 c 10.96519,10.98124 25.85114,17.14512 41.3696,17.13006 15.52185,0.0177 30.41048,-6.1526 41.3696,-17.14469 l 231.1168,-231.08754 176.61074,176.59612 c 14.78248,14.77349 36.32209,20.54126 56.50909,15.13172 20.18699,-5.40955 35.95629,-21.17506 41.37069,-41.36075 L 978.72457,121.47566 C 988.67824,84.317429 960.68269,47.828276 922.2144,47.8208 Z"
     p-id="1952"
     id="path2352"
     style="fill:#5b51a2;fill-opacity:1"
     inkscape:connector-curvature="0"
     sodipodi:nodetypes="ccccccccccccsccc" />
  <path
     d="m 620.76343,270.49691 a 14.628571,14.628571 0 0 1 -3.96434,-28.70125 l 40.78445,-11.45417 a 14.628571,14.628571 0 0 1 7.91406,28.16 l -40.78446,11.45417 a 14.921143,14.921143 0 0 1 -3.94971,0.54125 z m -319.15154,89.6 A 14.628571,14.628571 0 0 1 297.6768,331.39566 L 533.82583,265.1136 a 14.628571,14.628571 0 1 1 7.89943,28.16 l -236.14903,66.28206 a 14.9504,14.9504 0 0 1 -3.96434,0.54125 z"
     p-id="1953"
     id="path2354"
     style="fill:#ffffff;fill-opacity:1"
     inkscape:connector-curvature="0" />
  <g
     aria-label="Steem"
     style="font-style:normal;font-weight:normal;font-size:528.43640137px;line-height:1.25;font-family:sans-serif;letter-spacing:0px;word-spacing:0px;fill:#4d4d4d;fill-opacity:1;stroke:none;stroke-width:13.21091175"
     id="text2926">
    <path
       d="m 1199.1743,390.18144 q 35.9337,0 52.3152,-12.15404 16.3815,-12.15403 16.3815,-34.34836 0,-13.21091 -5.8128,-22.72277 -5.2844,-9.51185 -15.8531,-16.90996 -10.0403,-7.92655 -24.8365,-14.26779 -14.7962,-6.86967 -33.8199,-13.21091 -19.0237,-6.86967 -36.9906,-14.79622 -17.4384,-8.45498 -31.1777,-20.60902 -13.2109,-12.15403 -21.6659,-29.064 -7.9266,-16.90996 -7.9266,-40.6896 0,-49.67302 34.3484,-77.680151 34.3484,-28.535566 93.5333,-28.535566 34.3483,0 60.7701,7.926546 26.9503,7.39811 42.275,16.381529 l -20.6091,53.900512 q -17.9668,-10.04029 -39.6327,-15.32466 -21.1375,-5.28436 -43.8602,-5.28436 -26.9503,0 -42.2749,11.09717 -14.7963,11.09716 -14.7963,31.17774 0,12.15404 4.756,21.13746 5.2843,8.45498 14.2678,15.32465 9.5118,6.86968 21.6659,12.68248 12.6824,5.8128 27.4786,11.09716 25.8934,9.51186 45.974,19.55215 20.609,9.51185 34.3484,23.2512 14.2678,13.21091 21.6659,31.70619 7.3981,17.96683 7.3981,43.86022 0,49.67302 -35.4053,77.15171 -34.8768,26.95026 -102.5166,26.95026 -22.7228,0 -41.7465,-3.17062 -18.4953,-2.64218 -33.2915,-6.86967 -14.2678,-4.2275 -24.8365,-8.45499 -10.5687,-4.75592 -16.91,-8.45498 l 19.5522,-54.42895 q 14.2678,7.92655 38.5758,15.85309 24.3081,7.92655 58.6565,7.92655 z"
       style="font-style:normal;font-variant:normal;font-weight:600;font-stretch:normal;font-family:Ubuntu;-inkscape-font-specification:'Ubuntu Semi-Bold';fill:#4d4d4d;stroke-width:13.21091175"
       id="path2981" />
    <path
       d="m 1388.916,90.558 63.9408,-10.568728 v 83.492948 h 98.2892 v 53.37208 h -98.2892 v 112.55695 q 0,33.2915 10.5687,47.55928 10.5687,14.26778 35.9337,14.26778 17.4384,0 30.6493,-3.69905 13.7394,-3.69906 21.6659,-6.86968 l 10.5687,50.7299 q -11.0971,4.75593 -29.064,9.51185 -17.9668,5.28437 -42.2749,5.28437 -29.5924,0 -49.673,-7.92655 -19.5522,-7.92654 -31.1778,-22.72276 -11.6256,-15.32466 -16.3815,-36.46211 -4.7559,-21.6659 -4.7559,-49.14459 z"
       style="font-style:normal;font-variant:normal;font-weight:600;font-stretch:normal;font-family:Ubuntu;-inkscape-font-specification:'Ubuntu Semi-Bold';fill:#4d4d4d;stroke-width:13.21091175"
       id="path2983" />
    <path
       d="m 1592.4713,302.98943 q 0,-36.46211 10.5688,-63.9408 11.0971,-27.47869 29.064,-45.44553 17.9668,-18.49528 41.218,-27.47869 23.2512,-9.51186 47.5593,-9.51186 57.0711,0 88.7773,35.40524 32.2346,35.40524 32.2346,105.68728 0,5.28436 -0.5284,12.15404 0,6.34123 -0.5285,11.6256 h -182.3105 q 2.6422,33.29149 23.2512,51.78677 21.1374,17.96683 60.7702,17.96683 23.2512,0 42.2749,-4.22749 19.5521,-4.22749 30.6493,-8.98342 l 8.455,52.31521 q -5.2844,2.64218 -14.7962,5.8128 -8.9835,2.64218 -21.1375,4.75592 -11.6256,2.64219 -25.3649,4.2275 -13.7394,1.5853 -28.0072,1.5853 -36.4621,0 -63.4123,-10.56872 -26.9503,-11.09717 -44.3887,-30.12088 -17.4384,-19.55214 -25.8934,-45.44553 -8.455,-26.42182 -8.455,-57.59957 z m 185.4812,-28.53556 q 0,-13.21091 -3.699,-24.83651 -3.6991,-12.15404 -11.0972,-20.60902 -6.8697,-8.98342 -17.4384,-13.73935 -10.0403,-5.28436 -24.3081,-5.28436 -14.7962,0 -25.8934,5.8128 -11.0971,5.28436 -19.0237,14.26778 -7.3981,8.98342 -11.6256,20.60902 -4.2275,11.6256 -5.8128,23.77964 z"
       style="font-style:normal;font-variant:normal;font-weight:600;font-stretch:normal;font-family:Ubuntu;-inkscape-font-specification:'Ubuntu Semi-Bold';fill:#4d4d4d;stroke-width:13.21091175"
       id="path2985" />
    <path
       d="m 1893.8452,302.98943 q 0,-36.46211 10.5688,-63.9408 11.0971,-27.47869 29.064,-45.44553 17.9668,-18.49528 41.218,-27.47869 23.2512,-9.51186 47.5593,-9.51186 57.0711,0 88.7773,35.40524 32.2346,35.40524 32.2346,105.68728 0,5.28436 -0.5284,12.15404 0,6.34123 -0.5285,11.6256 h -182.3105 q 2.6422,33.29149 23.2512,51.78677 21.1374,17.96683 60.7702,17.96683 23.2512,0 42.2749,-4.22749 19.5521,-4.22749 30.6493,-8.98342 l 8.455,52.31521 q -5.2844,2.64218 -14.7962,5.8128 -8.9835,2.64218 -21.1375,4.75592 -11.6256,2.64219 -25.3649,4.2275 -13.7394,1.5853 -28.0072,1.5853 -36.4621,0 -63.4123,-10.56872 -26.9503,-11.09717 -44.3887,-30.12088 -17.4384,-19.55214 -25.8934,-45.44553 -8.455,-26.42182 -8.455,-57.59957 z m 185.4812,-28.53556 q 0,-13.21091 -3.699,-24.83651 -3.6991,-12.15404 -11.0972,-20.60902 -6.8697,-8.98342 -17.4384,-13.73935 -10.0403,-5.28436 -24.3081,-5.28436 -14.7962,0 -25.8934,5.8128 -11.0971,5.28436 -19.0237,14.26778 -7.3981,8.98342 -11.6256,20.60902 -4.2275,11.6256 -5.8128,23.77964 z"
       style="font-style:normal;font-variant:normal;font-weight:600;font-stretch:normal;font-family:Ubuntu;-inkscape-font-specification:'Ubuntu Semi-Bold';fill:#4d4d4d;stroke-width:13.21091175"
       id="path2987" />
    <path
       d="m 2368.0178,294.53445 q 0,-43.33178 -11.0972,-62.35549 -10.5687,-19.55215 -40.1612,-19.55215 -10.5687,0 -23.2512,1.58531 -12.6824,1.58531 -19.0237,2.64218 v 223.00016 h -63.9408 V 172.46564 q 18.4953,-5.28436 48.0877,-10.04029 30.1209,-4.75593 63.4124,-4.75593 28.5356,0 46.5024,7.39811 18.4953,7.39811 30.6493,19.55215 5.8128,-4.22749 14.7962,-8.98342 8.9835,-4.75593 20.0806,-8.45498 11.0972,-4.22749 23.2512,-6.86967 12.6825,-2.64219 25.365,-2.64219 32.2346,0 52.8436,9.51186 21.1375,8.98342 32.7631,25.89338 12.154,16.38153 16.3815,40.16117 4.7559,23.2512 4.7559,51.25833 v 155.3603 h -63.9408 V 294.53445 q 0,-43.33178 -10.5687,-62.35549 -10.5687,-19.55215 -40.6896,-19.55215 -15.3247,0 -29.064,5.28436 -13.7394,4.75593 -20.609,9.51186 4.2275,13.21091 5.8128,28.00713 1.5853,14.79622 1.5853,31.70618 v 152.71812 h -63.9408 z"
       style="font-style:normal;font-variant:normal;font-weight:600;font-stretch:normal;font-family:Ubuntu;-inkscape-font-specification:'Ubuntu Semi-Bold';fill:#4d4d4d;stroke-width:13.21091175"
       id="path2989" />
  </g>
  <g
     aria-label="Context"
     style="font-style:normal;font-weight:normal;font-size:528.43640137px;line-height:1.25;font-family:sans-serif;letter-spacing:0px;word-spacing:0px;fill:#4d4d4d;fill-opacity:1;stroke:none;stroke-width:13.21091175"
     id="text2934">
    <path
       d="m 1258.8876,904.14084 q -41.2181,0 -73.9811,-12.68247 -32.7631,-12.68248 -55.4859,-36.99055 -22.7227,-24.83651 -34.8768,-60.24175 -12.154,-35.40524 -12.154,-81.37921 0,-45.97396 13.7393,-81.3792 14.2678,-35.40524 38.5759,-59.71332 24.3081,-24.83651 57.0711,-37.51898 32.7631,-12.68247 70.2821,-12.68247 22.7227,0 41.218,3.69905 18.4953,3.17062 32.2346,7.39811 13.7394,4.22749 22.7228,8.98342 8.9834,4.75593 12.6825,6.86967 l -19.5522,54.42895 q -12.6824,-7.92654 -36.4621,-14.79622 -23.2512,-7.39811 -50.7299,-7.39811 -23.7796,0 -44.3886,8.45499 -20.6091,7.92654 -35.9337,24.30807 -14.7962,16.38153 -23.2512,41.21804 -8.455,24.83651 -8.455,57.59957 0,29.064 6.3412,53.37207 6.8697,24.30808 20.6091,42.27492 13.7393,17.4384 34.8768,27.47869 21.1374,9.51185 50.7299,9.51185 35.4052,0 57.5995,-6.86967 22.1944,-7.39811 34.3484,-13.73935 l 17.9668,54.42895 q -6.3412,4.22749 -17.4384,8.45499 -10.5687,4.22749 -25.3649,8.45498 -14.7962,3.69905 -33.2915,5.8128 -18.4953,2.64218 -39.6327,2.64218 z"
       style="font-style:normal;font-variant:normal;font-weight:600;font-stretch:normal;font-family:Ubuntu;-inkscape-font-specification:'Ubuntu Semi-Bold';fill:#4d4d4d;stroke-width:13.21091175"
       id="path2966" />
    <path
       d="m 1673.1817,757.76396 q 0,32.76305 -9.5118,59.71331 -9.5119,26.95026 -26.9503,45.97397 -17.4384,19.02371 -42.2749,29.59244 -24.3081,10.56872 -53.9005,10.56872 -29.5925,0 -53.9005,-10.56872 -24.3081,-10.56873 -41.7465,-29.59244 -17.4384,-19.02371 -27.4787,-45.97397 -9.5119,-26.95026 -9.5119,-59.71331 0,-32.76306 9.5119,-59.18488 10.0403,-26.95026 27.4787,-45.97397 17.9668,-19.02371 42.2749,-29.064 24.3081,-10.56873 53.3721,-10.56873 29.064,0 53.372,10.56873 24.8366,10.04029 42.275,29.064 17.4384,19.02371 26.9502,45.97397 10.0403,26.42182 10.0403,59.18488 z m -65.5261,0 q 0,-41.21804 -17.9668,-64.99768 -17.4384,-24.30807 -49.1446,-24.30807 -31.7062,0 -49.6731,24.30807 -17.4384,23.77964 -17.4384,64.99768 0,41.74647 17.4384,66.05455 17.9669,24.30807 49.6731,24.30807 31.7062,0 49.1446,-24.30807 17.9668,-24.30808 17.9668,-66.05455 z"
       style="font-style:normal;font-variant:normal;font-weight:600;font-stretch:normal;font-family:Ubuntu;-inkscape-font-specification:'Ubuntu Semi-Bold';fill:#4d4d4d;stroke-width:13.21091175"
       id="path2968" />
    <path
       d="m 1739.0546,628.82548 q 18.4953,-5.28437 48.0877,-10.0403 29.5924,-4.75592 65.5261,-4.75592 33.8199,0 56.5427,9.51185 22.7228,8.98342 35.9337,25.89338 13.7393,16.38153 19.0237,40.16117 5.8128,23.2512 5.8128,51.25833 v 155.3603 h -63.9408 V 750.89428 q 0,-22.19432 -3.1706,-37.51898 -2.6422,-15.85309 -9.5119,-25.36495 -6.3412,-10.04029 -17.9668,-14.26778 -11.0972,-4.75593 -27.4787,-4.75593 -12.154,0 -25.365,1.58531 -13.2109,1.58531 -19.5521,2.64218 v 223.00016 h -63.9408 z"
       style="font-style:normal;font-variant:normal;font-weight:600;font-stretch:normal;font-family:Ubuntu;-inkscape-font-specification:'Ubuntu Semi-Bold';fill:#4d4d4d;stroke-width:13.21091175"
       id="path2970" />
    <path
       d="m 2045.5147,546.91783 63.9408,-10.56872 v 83.49295 h 98.2892 v 53.37207 h -98.2892 v 112.55696 q 0,33.29149 10.5687,47.55927 10.5688,14.26779 35.9337,14.26779 17.4384,0 30.6493,-3.69906 13.7394,-3.69905 21.6659,-6.86967 l 10.5688,50.72989 q -11.0972,4.75593 -29.0641,9.51186 -17.9668,5.28436 -42.2749,5.28436 -29.5924,0 -49.673,-7.92654 -19.5521,-7.92655 -31.1777,-22.72277 -11.6256,-15.32466 -16.3816,-36.46211 -4.7559,-21.66589 -4.7559,-49.14459 z"
       style="font-style:normal;font-variant:normal;font-weight:600;font-stretch:normal;font-family:Ubuntu;-inkscape-font-specification:'Ubuntu Semi-Bold';fill:#4d4d4d;stroke-width:13.21091175"
       id="path2972" />
    <path
       d="m 2249.07,759.34927 q 0,-36.46212 10.5688,-63.94081 11.0971,-27.47869 29.064,-45.44553 17.9668,-18.49527 41.218,-27.47869 23.2512,-9.51186 47.5593,-9.51186 57.0711,0 88.7773,35.40524 32.2346,35.40524 32.2346,105.68728 0,5.28437 -0.5284,12.15404 0,6.34124 -0.5285,11.6256 h -182.3105 q 2.6422,33.29149 23.2512,51.78677 21.1374,17.96684 60.7702,17.96684 23.2512,0 42.2749,-4.2275 19.5521,-4.22749 30.6493,-8.98341 l 8.455,52.3152 q -5.2844,2.64218 -14.7963,5.8128 -8.9834,2.64218 -21.1374,4.75593 -11.6256,2.64218 -25.365,4.22749 -13.7393,1.58531 -28.0071,1.58531 -36.4621,0 -63.4124,-10.56873 -26.9502,-11.09716 -44.3886,-30.12088 -17.4384,-19.55214 -25.8934,-45.44553 -8.455,-26.42182 -8.455,-57.59956 z m 185.4812,-28.53557 q 0,-13.21091 -3.6991,-24.83651 -3.699,-12.15404 -11.0971,-20.60902 -6.8697,-8.98342 -17.4384,-13.73935 -10.0403,-5.28436 -24.3081,-5.28436 -14.7962,0 -25.8934,5.8128 -11.0971,5.28436 -19.0237,14.26778 -7.3981,8.98342 -11.6256,20.60902 -4.2275,11.6256 -5.8128,23.77964 z"
       style="font-style:normal;font-variant:normal;font-weight:600;font-stretch:normal;font-family:Ubuntu;-inkscape-font-specification:'Ubuntu Semi-Bold';fill:#4d4d4d;stroke-width:13.21091175"
       id="path2974" />
    <path
       d="m 2665.1146,710.20468 58.6565,-90.36262 h 67.1114 l -90.8911,130.52379 q 28.5356,36.99055 54.429,75.03797 26.4218,37.51898 43.3318,70.81047 h -69.2252 q -4.7559,-10.04029 -12.6825,-22.72276 -7.3981,-13.21091 -16.3815,-26.95026 -8.455,-14.26778 -17.9668,-28.00713 -9.5119,-13.73934 -18.4953,-25.89338 -18.4953,23.77964 -36.4621,52.84364 -17.4384,28.53557 -29.064,50.72989 h -65.5261 q 7.9265,-15.85309 19.0237,-33.81993 11.0971,-17.96683 23.7796,-36.46211 12.6825,-19.02371 25.8934,-37.51898 13.7393,-19.02371 26.9502,-35.93368 l -91.4195,-132.63753 h 70.2821 z"
       style="font-style:normal;font-variant:normal;font-weight:600;font-stretch:normal;font-family:Ubuntu;-inkscape-font-specification:'Ubuntu Semi-Bold';fill:#4d4d4d;stroke-width:13.21091175"
       id="path2976" />
    <path
       d="m 2842.2977,546.91783 63.9408,-10.56872 v 83.49295 h 98.2891 v 53.37207 h -98.2891 v 112.55696 q 0,33.29149 10.5687,47.55927 10.5687,14.26779 35.9337,14.26779 17.4384,0 30.6493,-3.69906 13.7393,-3.69905 21.6659,-6.86967 l 10.5687,50.72989 q -11.0972,4.75593 -29.064,9.51186 -17.9668,5.28436 -42.2749,5.28436 -29.5924,0 -49.673,-7.92654 -19.5522,-7.92655 -31.1778,-22.72277 -11.6256,-15.32466 -16.3815,-36.46211 -4.7559,-21.66589 -4.7559,-49.14459 z"
       style="font-style:normal;font-variant:normal;font-weight:600;font-stretch:normal;font-family:Ubuntu;-inkscape-font-specification:'Ubuntu Semi-Bold';fill:#4d4d4d;stroke-width:13.21091175"
       id="path2978" />
  </g>
</svg>
